# xmcd
#
# Track frame offsets: 
#        150
#        19143
#        33632
#        55521
#        70501
#        86525
#        100189
#        118895
#        134819
#        154425
#        176971
#
# Disc length: 2552 seconds
#
# Revision: 0
# Processed by: cddbd v1.5.2PL0 Copyright (c) Steve Scherf et al.
# Submitted via: ExactAudioCopy v1.0b3
#
DISCID=9a09f60b
DTITLE=Brad Benge - Nashville
DYEAR=2012
DGENRE=Folk
TTITLE0=Days To Come
TTITLE1=Cabin On A Mountain
TTITLE2=After The Pain
TTITLE3=Hitch A Ride
TTITLE4=Talk Back Trembling Lips
TTITLE5=My Saro Jane
TTITLE6=Overnight
TTITLE7=This Heart Of Mine
TTITLE8=If She's Textin' Texas
TTITLE9=Country Comfort
TTITLE10=Into God's Hands
EXTD=
EXTT0=
EXTT1=
EXTT2=
EXTT3=
EXTT4=
EXTT5=
EXTT6=
EXTT7=
EXTT8=
EXTT9=
EXTT10=
PLAYORDER=
